# xmcd CD database file
#
# Track frame offsets:
#	150
#	39310
#	56695
#	86130
#	107732
#	125442
#	141825
#	162865
#	180557
#	201835
#	220447
#	257820
#	292137
#	309215
#	335622
#
# Disc length: 4724 seconds
#
# Revision: 0
# Processed by: cddbd v1.5.1PL2 Copyright (c) Steve Scherf et al.
# Submitted via: CDex 1.51
#
DISCID=e412720f
DTITLE=Various Artist - DREAMING MANIA
DYEAR=1997
DGENRE=Dream
TTITLE0=INSOMNIA
TTITLE1=AYLA
TTITLE2=SKY PLUS
TTITLE3=WHALES
TTITLE4=60 SECONDS
TTITLE5=EDEN
TTITLE6=COME ON
TTITLE7=WALK ON BY
TTITLE8=THE JOURNEY
TTITLE9=7 SECONDS
TTITLE10=WHITE HOESES
TTITLE11=THE GREAT BEAR
TTITLE12=IT'S COLOURS
TTITLE13=SWALLOWS
TTITLE14=DE NIRO
EXTD=YEAR: 1997
EXTT0=
EXTT1=
EXTT2=
EXTT3=
EXTT4=
EXTT5=
EXTT6=
EXTT7=
EXTT8=
EXTT9=
EXTT10=
EXTT11=
EXTT12=
EXTT13=
EXTT14=
PLAYORDER=
